# xmcd
#
# Track frame offsets:
#	150
#	17255
#	31562
#	45267
#	60571
#	76093
#	94475
#	107384
#	119123
#	132546
#	147464
#	162590
#	176848
#	191754
#	204857
#	218814
#	233782
#	246742
#	260951
#
# Disc length: 3646 seconds
#
# Revision: 0
# Processed by: cddbd v1.5.2PL0 Copyright (c) Steve Scherf et al.
# Submitted via: EasyCDDAExtractor 16.0.6.1
#
DISCID=130e3c13
DTITLE=Jorge E Mateus - Essencial
DYEAR=1900
DGENRE=
TTITLE0=Duas Metades
TTITLE1=Seu Astral
TTITLE2=Amo Noite E Dia
TTITLE3=Voa Beija Flor
TTITLE4=Amor Covarde
TTITLE5=Ai Ja Era
TTITLE6=De Tanto Te Querer
TTITLE7=Vou Fazer Pirraça
TTITLE8=Pra Que Entender
TTITLE9=Mania De Te Amar
TTITLE10=Pode Chorar
TTITLE11=Espelho
TTITLE12=Onde Haja Sol
TTITLE13=Te Amo Tanto Que Nem Sei
TTITLE14=Mistérios
TTITLE15=Um Dia Eu Te Levo Comigo
TTITLE16=Traz Ela De Volta Pra Mim
TTITLE17=O Mundo É Tão Pequeno
TTITLE18=Querendo Te Amar
EXTD=
EXTT0=
EXTT1=
EXTT2=
EXTT3=
EXTT4=
EXTT5=
EXTT6=
EXTT7=
EXTT8=
EXTT9=
EXTT10=
EXTT11=
EXTT12=
EXTT13=
EXTT14=
EXTT15=
EXTT16=
EXTT17=
EXTT18=
PLAYORDER=
